# This file uses centimeters as units for non-parametric coordinates.

mtllib HeartTriangles.mtl
g default
v 0.951057 -0.087868 -0.309017
v 0.809018 -0.087868 -0.587786
v 0.587786 -0.087868 -0.717237
v 0.309017 -0.087868 -0.715051
v 0.000000 -0.087868 -0.414357
v -0.309017 -0.087868 -0.715051
v -0.587785 -0.087868 -0.717237
v -0.809017 -0.087868 -0.587785
v -0.951057 -0.087868 -0.309017
v -0.969407 -0.087868 0.000000
v -0.824313 -0.087868 0.309017
v -0.551159 -0.087868 0.587785
v -0.303704 -0.087868 0.809017
v -0.090493 -0.087868 0.951057
v -0.000000 -0.087868 1.000000
v 0.090493 -0.087868 0.951057
v 0.303704 -0.087868 0.809017
v 0.551159 -0.087868 0.587785
v 0.824313 -0.087868 0.309017
v 0.969407 -0.087868 0.000000
v 0.951057 0.087868 -0.309017
v 0.809018 0.087868 -0.587786
v 0.587786 0.087868 -0.717237
v 0.309017 0.087868 -0.715051
v 0.000000 0.087868 -0.414357
v -0.309017 0.087868 -0.715051
v -0.587785 0.087868 -0.717237
v -0.809017 0.087868 -0.587785
v -0.951057 0.087868 -0.309017
v -0.969407 0.087868 0.000000
v -0.824313 0.087868 0.309017
v -0.551159 0.087868 0.587785
v -0.303704 0.087868 0.809017
v -0.090493 0.087868 0.951057
v -0.000000 0.087868 1.000000
v 0.090493 0.087868 0.951057
v 0.303704 0.087868 0.809017
v 0.551159 0.087868 0.587785
v 0.824313 0.087868 0.309017
v 0.969407 0.087868 0.000000
v 0.711126 -0.227559 -0.195391
v 0.604920 -0.227559 -0.403832
v 0.439500 -0.227559 -0.500626
v 0.231059 -0.227559 -0.498991
v -0.000000 -0.227559 -0.274156
v -0.231059 -0.227559 -0.498991
v -0.439500 -0.227559 -0.500626
v -0.604919 -0.227559 -0.403832
v -0.711125 -0.227559 -0.195391
v -0.724846 -0.227559 0.035667
v -0.616356 -0.227559 0.266726
v -0.412113 -0.227559 0.475167
v -0.227086 -0.227559 0.640587
v -0.067664 -0.227559 0.746793
v -0.000000 -0.227559 0.783389
v 0.067664 -0.227559 0.746793
v 0.227086 -0.227559 0.640587
v 0.412113 -0.227559 0.475167
v 0.616356 -0.227559 0.266726
v 0.724846 -0.227559 0.035667
v 0.711126 0.227559 -0.195391
v 0.604920 0.227559 -0.403832
v 0.439500 0.227559 -0.500626
v 0.231059 0.227559 -0.498991
v -0.000000 0.227559 -0.274156
v -0.231059 0.227559 -0.498991
v -0.439500 0.227559 -0.500626
v -0.604919 0.227559 -0.403832
v -0.711125 0.227559 -0.195391
v -0.724846 0.227559 0.035667
v -0.616356 0.227559 0.266726
v -0.412113 0.227559 0.475167
v -0.227086 0.227559 0.640587
v -0.067664 0.227559 0.746793
v -0.000000 0.227559 0.783389
v 0.067664 0.227559 0.746793
v 0.227086 0.227559 0.640587
v 0.412113 0.227559 0.475167
v 0.616356 0.227559 0.266726
v 0.724846 0.227559 0.035667
v 0.342536 -0.298569 -0.020836
v 0.291379 -0.298569 -0.121238
v -0.000000 -0.333425 0.090461
v 0.211699 -0.298569 -0.167862
v 0.111297 -0.298569 -0.167074
v -0.000000 -0.298569 -0.058775
v -0.111297 -0.298569 -0.167074
v -0.211699 -0.298569 -0.167862
v -0.291379 -0.298569 -0.121238
v -0.342536 -0.298569 -0.020836
v -0.349145 -0.298569 0.090461
v -0.296888 -0.298569 0.201758
v -0.198507 -0.298569 0.302160
v -0.109383 -0.298569 0.381839
v -0.032592 -0.298569 0.432997
v -0.000000 -0.298569 0.450625
v 0.032592 -0.298569 0.432997
v 0.109383 -0.298569 0.381839
v 0.198507 -0.298569 0.302160
v 0.296887 -0.298569 0.201758
v 0.349145 -0.298569 0.090461
v 0.342536 0.298569 -0.020836
v 0.291379 0.298569 -0.121238
v -0.000000 0.333425 0.090461
v 0.211699 0.298569 -0.167862
v 0.111297 0.298569 -0.167074
v -0.000000 0.298569 -0.058775
v -0.111297 0.298569 -0.167074
v -0.211699 0.298569 -0.167862
v -0.291379 0.298569 -0.121238
v -0.342536 0.298569 -0.020836
v -0.349145 0.298569 0.090461
v -0.296888 0.298569 0.201758
v -0.198507 0.298569 0.302160
v -0.109383 0.298569 0.381839
v -0.032592 0.298569 0.432997
v -0.000000 0.298569 0.450625
v 0.032592 0.298569 0.432997
v 0.109383 0.298569 0.381839
v 0.198507 0.298569 0.302160
v 0.296887 0.298569 0.201758
v 0.349145 0.298569 0.090461
vt 0.648603 0.107966
vt 0.626409 0.064408
vt 0.591842 0.029841
vt 0.548284 0.007647
vt 0.500000 -0.000000
vt 0.451716 0.007647
vt 0.408159 0.029841
vt 0.373591 0.064409
vt 0.351397 0.107966
vt 0.343750 0.156250
vt 0.351397 0.204534
vt 0.373591 0.248091
vt 0.408159 0.282659
vt 0.451716 0.304853
vt 0.500000 0.312500
vt 0.548284 0.304853
vt 0.591841 0.282659
vt 0.626409 0.248091
vt 0.648603 0.204534
vt 0.656250 0.156250
vt 0.375000 0.312500
vt 0.387500 0.312500
vt 0.400000 0.312500
vt 0.412500 0.312500
vt 0.425000 0.312500
vt 0.437500 0.312500
vt 0.450000 0.312500
vt 0.462500 0.312500
vt 0.475000 0.312500
vt 0.487500 0.312500
vt 0.500000 0.312500
vt 0.512500 0.312500
vt 0.525000 0.312500
vt 0.537500 0.312500
vt 0.550000 0.312500
vt 0.562500 0.312500
vt 0.575000 0.312500
vt 0.587500 0.312500
vt 0.600000 0.312500
vt 0.612500 0.312500
vt 0.625000 0.312500
vt 0.375000 0.688440
vt 0.387500 0.688440
vt 0.400000 0.688440
vt 0.412500 0.688440
vt 0.425000 0.688440
vt 0.437500 0.688440
vt 0.450000 0.688440
vt 0.462500 0.688440
vt 0.475000 0.688440
vt 0.487500 0.688440
vt 0.500000 0.688440
vt 0.512500 0.688440
vt 0.525000 0.688440
vt 0.537500 0.688440
vt 0.550000 0.688440
vt 0.562500 0.688440
vt 0.575000 0.688440
vt 0.587500 0.688440
vt 0.600000 0.688440
vt 0.612500 0.688440
vt 0.625000 0.688440
vt 0.648603 0.795466
vt 0.626409 0.751908
vt 0.591842 0.717341
vt 0.548284 0.695147
vt 0.500000 0.687500
vt 0.451716 0.695147
vt 0.408159 0.717341
vt 0.373591 0.751909
vt 0.351397 0.795466
vt 0.343750 0.843750
vt 0.351397 0.892034
vt 0.373591 0.935591
vt 0.408159 0.970159
vt 0.451716 0.992353
vt 0.500000 1.000000
vt 0.548284 0.992353
vt 0.591841 0.970159
vt 0.626409 0.935591
vt 0.648603 0.892034
vt 0.656250 0.843750
vt 0.500000 0.150000
vt 0.500000 0.837500
vt 0.626409 0.064408
vt 0.648603 0.107966
vt 0.591842 0.029841
vt 0.548284 0.007647
vt 0.500000 -0.000000
vt 0.451716 0.007647
vt 0.408159 0.029841
vt 0.373591 0.064409
vt 0.351397 0.107966
vt 0.343750 0.156250
vt 0.351397 0.204534
vt 0.373591 0.248091
vt 0.408159 0.282659
vt 0.451716 0.304853
vt 0.500000 0.312500
vt 0.548284 0.304853
vt 0.591841 0.282659
vt 0.626409 0.248091
vt 0.648603 0.204534
vt 0.656250 0.156250
vt 0.648603 0.892034
vt 0.626409 0.935591
vt 0.591841 0.970159
vt 0.548284 0.992353
vt 0.500000 1.000000
vt 0.451716 0.992353
vt 0.408159 0.970159
vt 0.373591 0.935591
vt 0.351397 0.892034
vt 0.343750 0.843750
vt 0.351397 0.795466
vt 0.373591 0.751909
vt 0.408159 0.717341
vt 0.451716 0.695147
vt 0.500000 0.687500
vt 0.548284 0.695147
vt 0.591842 0.717341
vt 0.626409 0.751908
vt 0.648603 0.795466
vt 0.656250 0.843750
vt 0.626409 0.064408
vt 0.648603 0.107966
vt 0.591842 0.029841
vt 0.548284 0.007647
vt 0.500000 -0.000000
vt 0.451716 0.007647
vt 0.408159 0.029841
vt 0.373591 0.064409
vt 0.351397 0.107966
vt 0.343750 0.156250
vt 0.351397 0.204534
vt 0.373591 0.248091
vt 0.408159 0.282659
vt 0.451716 0.304853
vt 0.500000 0.312500
vt 0.548284 0.304853
vt 0.591841 0.282659
vt 0.626409 0.248091
vt 0.648603 0.204534
vt 0.656250 0.156250
vt 0.648603 0.892034
vt 0.626409 0.935591
vt 0.591841 0.970159
vt 0.548284 0.992353
vt 0.500000 1.000000
vt 0.451716 0.992353
vt 0.408159 0.970159
vt 0.373591 0.935591
vt 0.351397 0.892034
vt 0.343750 0.843750
vt 0.351397 0.795466
vt 0.373591 0.751909
vt 0.408159 0.717341
vt 0.451716 0.695147
vt 0.500000 0.687500
vt 0.548284 0.695147
vt 0.591842 0.717341
vt 0.626409 0.751908
vt 0.648603 0.795466
vt 0.656250 0.843750
vn 0.749847 -0.628733 -0.205969
vn 0.567617 -0.650373 -0.504803
vn 0.749847 0.628733 -0.205969
vn 0.199337 -0.606690 -0.769540
vn 0.199337 0.606690 -0.769540
vn -0.402518 -0.444591 -0.800198
vn 0.000000 -0.407423 -0.913240
vn 0.000000 0.407423 -0.913240
vn 0.402518 -0.444592 -0.800198
vn -0.199337 -0.606690 -0.769540
vn -0.199337 0.606690 -0.769540
vn -0.567617 -0.650373 -0.504803
vn -0.749847 -0.628733 -0.205970
vn -0.749847 0.628733 -0.205970
vn -0.792244 -0.588977 0.159549
vn -0.699427 -0.515600 0.494933
vn -0.699427 0.515600 0.494933
vn -0.603845 -0.490178 0.628568
vn -0.539750 -0.488878 0.685323
vn -0.539750 0.488878 0.685323
vn -0.459837 -0.502474 0.732168
vn -0.000000 -0.555314 0.831641
vn 0.000000 0.555313 0.831641
vn 0.459837 -0.502474 0.732168
vn 0.539751 -0.488878 0.685323
vn 0.539751 0.488878 0.685323
vn 0.603845 -0.490178 0.628568
vn 0.699427 -0.515600 0.494933
vn 0.699427 0.515600 0.494933
vn 0.792244 -0.588977 0.159550
vn 0.073312 -0.995319 -0.062976
vn 0.092896 -0.995341 -0.025821
vn -0.000000 -0.999999 -0.001671
vn 0.033173 -0.993716 -0.106901
vn -0.060007 -0.985404 -0.159304
vn 0.000000 -0.973791 -0.227445
vn 0.060006 -0.985404 -0.159304
vn -0.033173 -0.993716 -0.106900
vn -0.073312 -0.995319 -0.062976
vn -0.092896 -0.995341 -0.025821
vn -0.099324 -0.994891 0.018081
vn -0.092818 -0.993650 0.063601
vn -0.082599 -0.992863 0.086024
vn -0.071321 -0.993198 0.092039
vn -0.059047 -0.993677 0.095498
vn -0.000000 -0.995350 0.096329
vn 0.059047 -0.993677 0.095498
vn 0.071321 -0.993198 0.092039
vn 0.082599 -0.992863 0.086024
vn 0.092818 -0.993650 0.063602
vn 0.099324 -0.994891 0.018081
vn 0.092896 0.995341 -0.025821
vn 0.073312 0.995319 -0.062976
vn 0.000000 0.999999 -0.001671
vn 0.033173 0.993716 -0.106901
vn -0.060006 0.985404 -0.159304
vn -0.000000 0.973791 -0.227445
vn 0.060006 0.985404 -0.159304
vn -0.033173 0.993716 -0.106900
vn -0.073312 0.995319 -0.062976
vn -0.092896 0.995341 -0.025822
vn -0.099324 0.994891 0.018081
vn -0.092818 0.993650 0.063601
vn -0.082599 0.992863 0.086024
vn -0.071321 0.993198 0.092039
vn -0.059047 0.993677 0.095498
vn -0.000000 0.995350 0.096329
vn 0.059047 0.993677 0.095498
vn 0.071321 0.993198 0.092039
vn 0.082599 0.992863 0.086024
vn 0.092818 0.993650 0.063602
vn 0.099324 0.994891 0.018081
vn -0.603845 0.490178 0.628568
vn -0.792244 0.588977 0.159549
vn -0.567617 0.650373 -0.504803
vn 0.402518 0.444592 -0.800198
vn -0.402518 0.444592 -0.800198
vn 0.567617 0.650373 -0.504803
vn 0.792244 0.588977 0.159550
vn 0.603845 0.490178 0.628568
vn 0.459837 0.502474 0.732168
vn -0.459837 0.502474 0.732168
vn 0.415041 -0.884884 -0.211474
vn 0.455411 -0.881819 -0.122459
vn 0.237716 -0.882298 -0.406254
vn 0.237716 -0.882298 -0.406254
vn -0.004267 -0.839059 -0.544024
vn -0.004267 -0.839059 -0.544024
vn -0.566141 -0.583935 -0.581811
vn -0.566141 -0.583935 -0.581811
vn 0.566141 -0.583935 -0.581811
vn 0.566141 -0.583935 -0.581811
vn 0.004266 -0.839059 -0.544023
vn 0.004266 -0.839059 -0.544023
vn -0.237716 -0.882298 -0.406254
vn -0.237716 -0.882297 -0.406254
vn -0.415041 -0.884884 -0.211474
vn -0.455411 -0.881819 -0.122460
vn -0.504898 -0.856428 0.107748
vn -0.475077 -0.810774 0.341976
vn -0.428257 -0.785891 0.446061
vn -0.380664 -0.789425 0.481563
vn -0.321677 -0.797932 0.509734
vn -0.281290 -0.806467 0.520084
vn 0.321678 -0.797932 0.509734
vn 0.281290 -0.806467 0.520084
vn 0.380664 -0.789425 0.481563
vn 0.428257 -0.785891 0.446061
vn 0.475077 -0.810774 0.341976
vn 0.504898 -0.856428 0.107748
vn 0.415041 0.884884 -0.211474
vn 0.237716 0.882298 -0.406254
vn -0.004267 0.839059 -0.544024
vn -0.566141 0.583935 -0.581811
vn 0.566141 0.583935 -0.581811
vn 0.004266 0.839059 -0.544023
vn -0.237716 0.882298 -0.406254
vn -0.415041 0.884884 -0.211474
vn -0.504898 0.856428 0.107748
vn -0.428257 0.785891 0.446061
vn -0.321678 0.797932 0.509734
vn 0.321678 0.797932 0.509734
vn 0.428257 0.785891 0.446061
vn 0.504898 0.856428 0.107748
vn 0.152900 -0.985166 -0.077907
vn 0.168647 -0.984674 -0.044456
vn 0.152900 -0.985166 -0.077907
vn 0.087796 -0.984774 -0.150042
vn 0.087796 -0.984774 -0.150042
vn 0.087796 -0.984774 -0.150042
vn -0.001645 -0.977749 -0.209772
vn -0.001645 -0.977749 -0.209772
vn -0.001645 -0.977749 -0.209772
vn -0.291455 -0.908482 -0.299522
vn -0.291455 -0.908482 -0.299522
vn -0.291455 -0.908482 -0.299522
vn 0.291455 -0.908482 -0.299522
vn 0.291455 -0.908482 -0.299522
vn 0.291455 -0.908482 -0.299522
vn 0.001645 -0.977749 -0.209772
vn 0.001645 -0.977749 -0.209772
vn 0.001645 -0.977749 -0.209772
vn -0.087796 -0.984774 -0.150042
vn -0.087796 -0.984774 -0.150042
vn -0.087796 -0.984774 -0.150042
vn -0.168647 -0.984673 -0.044456
vn -0.152900 -0.985166 -0.077907
vn -0.152900 -0.985166 -0.077907
vn -0.190412 -0.981111 0.034119
vn -0.191657 -0.980500 0.043443
vn -0.188033 -0.972391 0.138201
vn -0.174649 -0.967744 0.181573
vn -0.174390 -0.967732 0.181887
vn -0.155241 -0.968410 0.195149
vn -0.127848 -0.970316 0.205287
vn -0.129912 -0.970100 0.205008
vn -0.112161 -0.971810 0.207379
vn 0.127848 -0.970316 0.205287
vn 0.112161 -0.971810 0.207378
vn 0.129912 -0.970100 0.205008
vn 0.155241 -0.968409 0.195149
vn 0.174649 -0.967744 0.181572
vn 0.174390 -0.967732 0.181888
vn 0.188033 -0.972391 0.138201
vn 0.190412 -0.981111 0.034119
vn 0.191657 -0.980500 0.043443
vn 0.167177 0.984777 -0.047603
vn 0.152900 0.985166 -0.077907
vn 0.168647 0.984674 -0.044456
vn 0.087796 0.984774 -0.150042
vn 0.087796 0.984774 -0.150042
vn 0.087796 0.984774 -0.150042
vn -0.001645 0.977749 -0.209772
vn -0.001645 0.977749 -0.209772
vn -0.001645 0.977749 -0.209772
vn -0.291455 0.908482 -0.299522
vn -0.291455 0.908482 -0.299522
vn -0.291455 0.908482 -0.299522
vn 0.291455 0.908482 -0.299522
vn 0.291455 0.908482 -0.299522
vn 0.291455 0.908482 -0.299522
vn 0.001645 0.977749 -0.209772
vn 0.001645 0.977749 -0.209772
vn 0.001645 0.977749 -0.209772
vn -0.087796 0.984774 -0.150042
vn -0.087796 0.984774 -0.150042
vn -0.087796 0.984774 -0.150042
vn -0.152900 0.985166 -0.077907
vn -0.167177 0.984777 -0.047603
vn -0.168647 0.984674 -0.044456
vn -0.190412 0.981111 0.034119
vn -0.189786 0.973129 0.130388
vn -0.188033 0.972391 0.138202
vn -0.174649 0.967744 0.181573
vn -0.153459 0.968524 0.195991
vn -0.155241 0.968409 0.195149
vn -0.127848 0.970316 0.205287
vn -0.112161 0.971810 0.207378
vn -0.112161 0.971810 0.207379
vn 0.112161 0.971810 0.207378
vn 0.127848 0.970315 0.205287
vn 0.112161 0.971810 0.207378
vn 0.153459 0.968524 0.195991
vn 0.155241 0.968409 0.195149
vn 0.174649 0.967744 0.181572
vn 0.189786 0.973129 0.130388
vn 0.188033 0.972391 0.138201
vn 0.190412 0.981111 0.034119
vn -0.291455 0.908482 -0.299522
vn -0.001645 0.977749 -0.209772
vn 0.087796 0.984774 -0.150042
vn 0.152900 0.985166 -0.077907
vn 0.191657 0.980500 0.043443
vn 0.174390 0.967732 0.181888
vn 0.129912 0.970100 0.205008
vn -0.129912 0.970100 0.205008
vn -0.174390 0.967732 0.181887
vn -0.191657 0.980500 0.043443
vn -0.152900 0.985166 -0.077907
vn -0.087796 0.984774 -0.150042
vn 0.001645 0.977749 -0.209772
vn 0.291455 0.908482 -0.299522
vn -0.291455 -0.908482 -0.299522
vn -0.001645 -0.977749 -0.209772
vn 0.087796 -0.984774 -0.150042
vn 0.167177 -0.984777 -0.047603
vn 0.189786 -0.973129 0.130388
vn 0.153459 -0.968524 0.195991
vn 0.112161 -0.971810 0.207378
vn -0.112161 -0.971810 0.207378
vn -0.153459 -0.968524 0.195991
vn -0.189786 -0.973129 0.130388
vn -0.167177 -0.984777 -0.047603
vn -0.087796 -0.984774 -0.150042
vn 0.001645 -0.977749 -0.209772
vn 0.291455 -0.908483 -0.299522
vn -0.281290 0.806467 0.520084
vn -0.380664 0.789425 0.481563
vn -0.475077 0.810774 0.341976
vn -0.455411 0.881819 -0.122460
vn -0.237716 0.882298 -0.406254
vn 0.004266 0.839059 -0.544023
vn 0.566141 0.583935 -0.581811
vn -0.566141 0.583935 -0.581811
vn -0.004267 0.839059 -0.544024
vn 0.237716 0.882298 -0.406254
vn 0.455411 0.881819 -0.122459
vn 0.475076 0.810774 0.341976
vn 0.380664 0.789425 0.481563
vn 0.281290 0.806467 0.520084
s 1
g pCylinder1
usemtl initialShadingGroup
f 1/21/1 2/22/2 21/42/3
f 2/22/2 3/23/4 23/44/5
f 3/23/4 4/24/6 23/44/5
f 4/24/6 5/25/7 25/46/8
f 5/25/7 6/26/9 25/46/8
f 6/26/9 7/27/10 27/48/11
f 7/27/10 8/28/12 27/48/11
f 8/28/12 9/29/13 29/50/14
f 9/29/13 10/30/15 29/50/14
f 10/30/15 11/31/16 31/52/17
f 11/31/16 12/32/18 31/52/17
f 12/32/18 13/33/19 33/54/20
f 13/33/19 14/34/21 33/54/20
f 14/34/21 15/35/22 35/56/23
f 15/35/22 16/36/24 35/56/23
f 16/36/24 17/37/25 37/58/26
f 17/37/25 18/38/27 37/58/26
f 18/38/27 19/39/28 39/60/29
f 19/39/28 20/40/30 39/60/29
f 20/40/30 1/41/1 21/62/3
s 11
f 82/125/31 81/126/32 83/83/33
f 84/127/34 82/125/31 83/83/33
f 85/128/35 84/127/34 83/83/33
f 86/129/36 85/128/35 83/83/33
f 87/130/37 86/129/36 83/83/33
f 88/131/38 87/130/37 83/83/33
f 89/132/39 88/131/38 83/83/33
f 90/133/40 89/132/39 83/83/33
f 91/134/41 90/133/40 83/83/33
f 92/135/42 91/134/41 83/83/33
f 93/136/43 92/135/42 83/83/33
f 94/137/44 93/136/43 83/83/33
f 95/138/45 94/137/44 83/83/33
f 96/139/46 95/138/45 83/83/33
f 97/140/47 96/139/46 83/83/33
f 98/141/48 97/140/47 83/83/33
f 99/142/49 98/141/48 83/83/33
f 100/143/50 99/142/49 83/83/33
f 101/144/51 100/143/50 83/83/33
f 81/126/32 101/144/51 83/83/33
s 12
f 102/145/52 103/146/53 104/84/54
f 103/146/53 105/147/55 104/84/54
f 105/147/55 106/148/56 104/84/54
f 106/148/56 107/149/57 104/84/54
f 107/149/57 108/150/58 104/84/54
f 108/150/58 109/151/59 104/84/54
f 109/151/59 110/152/60 104/84/54
f 110/152/60 111/153/61 104/84/54
f 111/153/61 112/154/62 104/84/54
f 112/154/62 113/155/63 104/84/54
f 113/155/63 114/156/64 104/84/54
f 114/156/64 115/157/65 104/84/54
f 115/157/65 116/158/66 104/84/54
f 116/158/66 117/159/67 104/84/54
f 117/159/67 118/160/68 104/84/54
f 118/160/68 119/161/69 104/84/54
f 119/161/69 120/162/70 104/84/54
f 120/162/70 121/163/71 104/84/54
f 121/163/71 122/164/72 104/84/54
f 122/164/72 102/145/52 104/84/54
s 1
f 31/52/17 12/32/18 32/53/73
f 10/30/15 31/52/17 30/51/74
f 29/50/14 10/30/15 30/51/74
f 8/28/12 29/50/14 28/49/75
f 27/48/11 8/28/12 28/49/75
f 6/26/9 27/48/11 26/47/76
f 25/46/8 6/26/9 26/47/76
f 4/24/6 25/46/8 24/45/77
f 23/44/5 4/24/6 24/45/77
f 2/22/2 23/44/5 22/43/78
f 21/42/3 2/22/2 22/43/78
f 20/40/30 21/62/3 40/61/79
f 39/60/29 20/40/30 40/61/79
f 18/38/27 39/60/29 38/59/80
f 37/58/26 18/38/27 38/59/80
f 16/36/24 37/58/26 36/57/81
f 35/56/23 16/36/24 36/57/81
f 14/34/21 35/56/23 34/55/82
f 33/54/20 14/34/21 34/55/82
f 12/32/18 33/54/20 32/53/73
f 42/85/83 1/1/1 41/86/84
f 3/3/4 42/85/85 43/87/86
f 44/88/87 3/3/4 43/87/88
f 5/5/7 44/88/89 45/89/90
f 46/90/91 5/5/7 45/89/92
f 7/7/10 46/90/93 47/91/94
f 48/92/95 7/7/10 47/91/96
f 9/9/13 48/92/97 49/93/98
f 50/94/99 9/9/13 49/93/98
f 11/11/16 50/94/99 51/95/100
f 52/96/101 11/11/16 51/95/100
f 13/13/19 52/96/101 53/97/102
f 54/98/103 13/13/19 53/97/102
f 15/15/22 54/98/103 55/99/104
f 56/100/105 15/15/22 55/99/106
f 17/17/25 56/100/105 57/101/107
f 58/102/108 17/17/25 57/101/107
f 19/19/28 58/102/108 59/103/109
f 60/104/110 19/19/28 59/103/109
f 1/1/1 60/104/110 41/86/84
f 21/81/3 22/80/78 62/106/111
f 22/80/78 23/79/5 62/106/112
f 23/79/5 24/78/77 64/108/113
f 24/78/77 25/77/8 64/108/114
f 25/77/8 26/76/76 66/110/115
f 26/76/76 27/75/11 66/110/116
f 27/75/11 28/74/75 68/112/117
f 28/74/75 29/73/14 68/112/118
f 29/73/14 30/72/74 70/114/119
f 30/72/74 31/71/17 70/114/119
f 31/71/17 32/70/73 72/116/120
f 32/70/73 33/69/20 72/116/120
f 33/69/20 34/68/82 74/118/121
f 34/68/82 35/67/23 74/118/121
f 35/67/23 36/66/81 76/120/122
f 36/66/81 37/65/26 76/120/122
f 37/65/26 38/64/80 78/122/123
f 38/64/80 39/63/29 78/122/123
f 39/63/29 40/82/79 80/124/124
f 40/82/79 21/81/3 80/124/124
s 13
f 42/85/125 81/126/126 82/125/127
s 14
f 84/127/128 42/85/129 82/125/130
s 15
f 44/88/131 84/127/132 85/128/133
s 16
f 86/129/134 44/88/135 85/128/136
s 17
f 46/90/137 86/129/138 87/130/139
s 18
f 88/131/140 46/90/141 87/130/142
s 19
f 48/92/143 88/131/144 89/132/145
s 20
f 90/133/146 48/92/147 89/132/148
f 50/94/149 90/133/146 91/134/150
f 92/135/151 50/94/149 91/134/150
f 52/96/152 92/135/151 93/136/153
f 94/137/154 52/96/152 93/136/153
f 54/98/155 94/137/154 95/138/156
f 96/139/157 54/98/155 95/138/156
s 13
f 56/100/158 96/139/159 97/140/160
f 98/141/161 56/100/158 97/140/160
f 58/102/162 98/141/161 99/142/163
f 100/143/164 58/102/162 99/142/163
f 60/104/165 100/143/164 101/144/166
f 81/126/126 60/104/165 101/144/166
s 27
f 61/105/167 62/106/168 102/145/169
s 28
f 62/106/170 63/107/171 105/147/172
s 29
f 63/107/173 64/108/174 105/147/175
s 30
f 64/108/176 65/109/177 107/149/178
s 31
f 65/109/179 66/110/180 107/149/181
s 32
f 66/110/182 67/111/183 109/151/184
s 33
f 67/111/185 68/112/186 109/151/187
s 34
f 68/112/188 69/113/189 111/153/190
f 69/113/189 70/114/191 111/153/190
f 70/114/191 71/115/192 113/155/193
f 71/115/192 72/116/194 113/155/193
f 72/116/194 73/117/195 115/157/196
f 73/117/195 74/118/197 115/157/196
f 74/118/197 75/119/198 117/159/199
s 27
f 75/119/200 76/120/201 117/159/202
f 76/120/201 77/121/203 119/161/204
f 77/121/203 78/122/205 119/161/204
f 78/122/205 79/123/206 121/163/207
f 79/123/206 80/124/208 121/163/207
f 80/124/208 61/105/167 102/145/169
s 30
f 64/108/176 107/149/178 106/148/209
s 29
f 105/147/175 64/108/174 106/148/210
s 28
f 62/106/170 105/147/172 103/146/211
s 27
f 102/145/169 62/106/168 103/146/212
f 80/124/208 102/145/169 122/164/213
f 121/163/207 80/124/208 122/164/213
f 78/122/205 121/163/207 120/162/214
f 119/161/204 78/122/205 120/162/214
f 76/120/201 119/161/204 118/160/215
f 117/159/202 76/120/201 118/160/215
s 34
f 74/118/197 117/159/199 116/158/216
f 115/157/196 74/118/197 116/158/216
f 72/116/194 115/157/196 114/156/217
f 113/155/193 72/116/194 114/156/217
f 70/114/191 113/155/193 112/154/218
f 111/153/190 70/114/191 112/154/218
f 68/112/188 111/153/190 110/152/219
s 33
f 109/151/187 68/112/186 110/152/220
s 32
f 66/110/182 109/151/184 108/150/221
s 31
f 107/149/181 66/110/180 108/150/222
s 16
f 45/89/223 44/88/135 86/129/134
s 15
f 44/88/131 43/87/224 84/127/132
s 14
f 43/87/225 42/85/129 84/127/128
s 13
f 42/85/125 41/86/226 81/126/126
f 41/86/226 60/104/165 81/126/126
f 60/104/165 59/103/227 100/143/164
f 59/103/227 58/102/162 100/143/164
f 58/102/162 57/101/228 98/141/161
f 57/101/228 56/100/158 98/141/161
f 56/100/158 55/99/229 96/139/159
s 20
f 55/99/230 54/98/155 96/139/157
f 54/98/155 53/97/231 94/137/154
f 53/97/231 52/96/152 94/137/154
f 52/96/152 51/95/232 92/135/151
f 51/95/232 50/94/149 92/135/151
f 50/94/149 49/93/233 90/133/146
f 49/93/233 48/92/147 90/133/146
s 19
f 48/92/143 47/91/234 88/131/144
s 18
f 47/91/235 46/90/141 88/131/140
s 17
f 46/90/137 45/89/236 86/129/138
s 1
f 74/118/121 35/67/23 75/119/237
f 33/69/20 74/118/121 73/117/238
f 72/116/120 33/69/20 73/117/238
f 31/71/17 72/116/120 71/115/239
f 70/114/119 31/71/17 71/115/239
f 29/73/14 70/114/119 69/113/240
f 68/112/118 29/73/14 69/113/240
f 27/75/11 68/112/117 67/111/241
f 66/110/116 27/75/11 67/111/242
f 25/77/8 66/110/115 65/109/243
f 64/108/114 25/77/8 65/109/244
f 23/79/5 64/108/113 63/107/245
f 62/106/112 23/79/5 63/107/246
f 21/81/3 62/106/111 61/105/247
f 80/124/124 21/81/3 61/105/247
f 39/63/29 80/124/124 79/123/248
f 78/122/123 39/63/29 79/123/248
f 37/65/26 78/122/123 77/121/249
f 76/120/122 37/65/26 77/121/249
f 35/67/23 76/120/122 75/119/250
f 15/15/22 14/14/21 54/98/103
f 14/14/21 13/13/19 54/98/103
f 13/13/19 12/12/18 52/96/101
f 12/12/18 11/11/16 52/96/101
f 11/11/16 10/10/15 50/94/99
f 10/10/15 9/9/13 50/94/99
f 9/9/13 8/8/12 48/92/97
f 8/8/12 7/7/10 48/92/95
f 7/7/10 6/6/9 46/90/93
f 6/6/9 5/5/7 46/90/91
f 5/5/7 4/4/6 44/88/89
f 4/4/6 3/3/4 44/88/87
f 3/3/4 2/2/2 42/85/85
f 2/2/2 1/1/1 42/85/83
f 1/1/1 20/20/30 60/104/110
f 20/20/30 19/19/28 60/104/110
f 19/19/28 18/18/27 58/102/108
f 18/18/27 17/17/25 58/102/108
f 17/17/25 16/16/24 56/100/105
f 16/16/24 15/15/22 56/100/105
